<svg xmlns="http://www.w3.org/2000/svg" width="500" height="500" fill="none"><path fill="#2960ad" d="M453.33 244.23v11.54q0 7.2-.52 14.26a194.6 194.6 0 0 1-61.35 127.82 193 193 0 0 1-131.54 51.83 193 193 0 0 1-131.54-51.83A194.6 194.6 0 0 1 66.73 265s-.22-12.36-.22-9.26V50c37.85 0 72.96 12.8 101.85 34.64 46.42 35.12 76.8 93.49 76.8 159.6h29.57c0-66.11 30.38-124.51 76.8-159.6C380.41 62.81 415.52 50 453.37 50z"/><g filter="url(#a)"><path fill="#fed304" d="M404.55 205.15v70a42.7 42.7 0 0 1-12.42 30.1 42.3 42.3 0 0 1-29.97 12.47h-23.58l-19.32 31.95a3.85 3.85 0 0 1-6.55 0l-19.31-31.95H158.1a42.3 42.3 0 0 1-29.97-12.46 42.7 42.7 0 0 1-12.42-30.1v-70.02a42.7 42.7 0 0 1 12.42-30.09 42.3 42.3 0 0 1 29.97-12.46h204.06a42.3 42.3 0 0 1 29.97 12.46 42.7 42.7 0 0 1 12.42 30.1"/></g><path fill="#fff" d="M204.59 259.04a18.26 18.26 0 0 0 18.22-18.3c0-10.1-8.16-18.29-18.22-18.29a18.26 18.26 0 0 0-18.22 18.3c0 10.1 8.16 18.29 18.22 18.29M260.3 259.04a18.26 18.26 0 0 0 18.21-18.3c0-10.1-8.16-18.29-18.22-18.29a18.26 18.26 0 0 0-18.22 18.3c0 10.1 8.16 18.29 18.22 18.29M316 259.04a18.26 18.26 0 0 0 18.21-18.3c0-10.1-8.15-18.29-18.21-18.29a18.26 18.26 0 0 0-18.22 18.3c0 10.1 8.15 18.29 18.22 18.29"/><g filter="url(#b)"><path fill="#f1573c" d="M153.64 378.24a54.7 54.7 0 0 1-13.02 35.43 54.3 54.3 0 0 1-32.81 18.45l-6.88 12.4a1.85 1.85 0 0 1-2.54.7q-.44-.25-.68-.7l-6.88-12.4a54 54 0 0 1-27.59-13.09 54.76 54.76 0 0 1 .79-82.26 54.13 54.13 0 0 1 58.03-8.07 54.4 54.4 0 0 1 23 20.13 54.7 54.7 0 0 1 8.58 29.41"/></g><path fill="#fff" d="M99.33 418.81a7.1 7.1 0 0 0 7.09-7.12 7.1 7.1 0 0 0-7.1-7.12 7.1 7.1 0 0 0-7.09 7.12 7.1 7.1 0 0 0 7.1 7.12M111.95 354.26q0 1.34-.28 2.65l-.11.52-8.1 35.42a4.17 4.17 0 0 1-4.14 4.37 4.14 4.14 0 0 1-4.14-4.37l-8.1-35.42-.1-.41a12.7 12.7 0 0 1 5.95-13.72 12.6 12.6 0 0 1 19.02 10.95"/><defs><filter id="a" width="292.43" height="192.5" x="114.51" y="161.99" color-interpolation-filters="sRGB" filterUnits="userSpaceOnUse"><feFlood flood-opacity="0" result="BackgroundImageFix"/><feColorMatrix in="SourceAlpha" result="hardAlpha" values="0 0 0 0 0 0 0 0 0 0 0 0 0 0 0 0 0 0 127 0"/><feOffset dx=".6" dy="1.19"/><feGaussianBlur stdDeviation=".9"/><feComposite in2="hardAlpha" operator="out"/><feColorMatrix values="0 0 0 0 0 0 0 0 0 0 0 0 0 0 0 0 0 0 0.25 0"/><feBlend in2="BackgroundImageFix" result="effect1_dropShadow_76_3471"/><feBlend in="SourceGraphic" in2="effect1_dropShadow_76_3471" result="shape"/></filter><filter id="b" width="112.23" height="125.36" x="43.79" y="323.1" color-interpolation-filters="sRGB" filterUnits="userSpaceOnUse"><feFlood flood-opacity="0" result="BackgroundImageFix"/><feColorMatrix in="SourceAlpha" result="hardAlpha" values="0 0 0 0 0 0 0 0 0 0 0 0 0 0 0 0 0 0 127 0"/><feOffset dx=".6" dy="1.19"/><feGaussianBlur stdDeviation=".9"/><feComposite in2="hardAlpha" operator="out"/><feColorMatrix values="0 0 0 0 0 0 0 0 0 0 0 0 0 0 0 0 0 0 0.25 0"/><feBlend in2="BackgroundImageFix" result="effect1_dropShadow_76_3471"/><feBlend in="SourceGraphic" in2="effect1_dropShadow_76_3471" result="shape"/></filter></defs></svg>